<svg width="800" height="800" viewBox="0 0 800 800" fill="none" xmlns="http://www.w3.org/2000/svg">
<g clip-path="url(#clip0_3373_61)">
<path d="M37.2299 380.769V385.068H4.98944V419.458H-0.32074V380.769H37.2299Z" fill="black"/>
<path d="M5.24233 419.71H-0.700012V380.39H37.4827V385.194H5.24233V419.71ZM-0.0678473 419.205H4.61017V384.688H36.8506V381.022H-0.0678473V419.205Z" fill="black"/>
<path d="M59.7349 380.769L83.7572 419.458H78.0677L70.861 407.826H41.4022L34.1955 419.458H29.0117L53.034 380.769H59.7349ZM68.3324 403.78L56.1948 384.183L43.9308 403.78H68.3324Z" fill="black"/>
<path d="M84.3894 419.71H78.0677L70.8611 408.078H41.7815L34.5748 419.71H28.6324L53.034 380.39H60.1143L60.2407 380.516L84.3894 419.71ZM78.3206 419.205H83.2515L59.6085 381.022H53.1605L29.5175 419.078H34.0691L41.2757 407.446H71.1139L78.3206 419.205ZM68.9646 404.033H43.4251L56.1948 383.55L68.9646 404.033ZM44.563 403.4H67.9531L56.3213 384.688L44.563 403.4Z" fill="black"/>
<path d="M91.8489 409.09C94.1247 414.021 100.446 415.917 112.205 415.917C124.721 415.917 131.296 413.642 131.296 408.964V407.826C131.296 403.78 126.618 401.631 117.768 401.631H100.067V397.711H117.768C125.101 397.711 130.032 395.688 130.032 391.516V390.504C130.032 385.574 123.204 384.183 112.078 384.183C100.573 384.183 93.9982 385.7 92.481 390.504H87.1709C89.1938 383.045 97.1591 380.137 112.078 380.137C127.882 380.137 135.342 383.677 135.342 390.631C135.342 395.309 131.549 398.343 126.618 399.102C132.181 400.113 136.48 402.642 136.48 408.332C136.48 416.297 128.262 419.963 112.078 419.963C97.1591 419.963 88.8145 416.929 86.5387 408.964H91.8489V409.09Z" fill="black"/>
<path d="M112.205 420.343C96.6533 420.343 88.6881 416.929 86.2859 409.216L86.1594 408.837H91.9753L92.1018 408.964C94.2511 413.642 100.194 415.665 112.078 415.665C124.595 415.665 130.917 413.389 130.917 408.964V407.826C130.917 402.642 122.699 401.883 117.768 401.883H99.8142V397.332H117.768C125.227 397.332 129.779 395.182 129.779 391.516V390.504C129.779 386.332 124.469 384.436 112.078 384.436C99.9406 384.436 94.1247 386.332 92.7339 390.504L92.6075 390.757H86.6652L86.7916 390.378C88.6881 382.918 96.2741 379.758 112.078 379.758C128.009 379.758 135.721 383.298 135.721 390.631C135.721 394.677 132.813 397.964 128.135 399.102C133.951 400.493 136.859 403.527 136.859 408.331C136.859 416.423 128.894 420.343 112.205 420.343ZM87.0445 409.469C89.4467 416.676 97.1591 419.837 112.205 419.837C128.388 419.837 136.353 416.17 136.353 408.458C136.353 403.653 133.066 400.745 126.744 399.608L125.101 399.355L126.744 399.102C131.928 398.217 135.215 395.056 135.215 390.884C135.215 383.93 127.756 380.643 112.205 380.643C97.0326 380.643 89.6995 383.551 87.6766 390.378H92.3547C93.9983 385.826 99.6877 384.056 112.205 384.056C124.974 384.056 130.411 386.079 130.411 390.757V391.769C130.411 395.815 125.733 398.217 117.768 398.217H100.446V401.251H117.768C129.147 401.251 131.549 404.791 131.549 407.826V408.964C131.549 413.768 124.974 416.297 112.078 416.297C100.067 416.297 93.8718 414.274 91.596 409.469H87.0445Z" fill="black"/>
<path d="M193.627 380.769V419.458H188.317V384.941H152.537V419.331H147.227V380.769H193.627Z" fill="black"/>
<path d="M193.88 419.71H187.938V385.321H152.79V419.71H146.847V380.39H193.88V419.71ZM188.57 419.205H193.248V381.022H147.353V419.078H152.031V384.688H188.444V419.205H188.57Z" fill="black"/>
<path d="M239.396 380.769C249.005 380.769 253.177 385.573 253.177 393.286C253.177 400.998 249.005 405.929 239.396 405.929H211.96V419.458H206.65V380.769H239.396ZM247.867 392.78C247.867 387.723 245.212 384.815 238.89 384.815H211.96V401.757H238.89C245.212 401.757 247.867 398.849 247.867 393.918V392.78Z" fill="black"/>
<path d="M212.213 419.71H206.271V380.39H239.396C248.626 380.39 253.557 384.815 253.557 393.159C253.557 401.63 248.626 406.056 239.396 406.056H212.213V419.71ZM206.903 419.205H211.581V405.676H239.27C248.12 405.676 252.798 401.378 252.798 393.412C252.798 385.321 248.247 381.148 239.27 381.148H206.777V419.205H206.903ZM238.891 402.01H211.581V384.562H238.891C245.086 384.562 248.12 387.343 248.12 392.78V393.918C248.247 399.355 245.086 402.01 238.891 402.01ZM212.213 401.504H238.891C244.706 401.504 247.614 398.975 247.614 393.918V392.78C247.614 387.596 244.833 385.068 238.891 385.068H212.213V401.504Z" fill="black"/>
<path d="M289.59 380.137C308.682 380.137 318.67 385.7 318.67 400.24C318.67 414.274 308.682 420.09 289.59 420.09C270.499 420.09 260.511 414.274 260.511 400.24C260.511 385.7 270.499 380.137 289.59 380.137ZM313.36 398.596C313.36 388.608 305.394 384.183 289.59 384.183C273.786 384.183 265.821 388.482 265.821 398.596V401.504C265.821 411.492 273.786 415.917 289.59 415.917C305.394 415.917 313.36 411.492 313.36 401.504V398.596Z" fill="black"/>
<path d="M289.59 420.343C269.614 420.343 260.258 413.894 260.258 400.24C260.258 386.079 269.361 379.884 289.59 379.884C309.819 379.884 318.923 386.206 318.923 400.24C319.049 413.894 309.693 420.343 289.59 420.343ZM289.59 380.39C269.74 380.39 260.763 386.459 260.763 400.24C260.763 413.642 269.867 419.837 289.59 419.837C309.314 419.837 318.417 413.642 318.417 400.24C318.417 386.459 309.567 380.39 289.59 380.39ZM289.59 416.17C273.407 416.17 265.441 411.366 265.441 401.504V398.596C265.441 388.608 273.154 383.93 289.59 383.93C306.026 383.93 313.739 388.608 313.739 398.596V401.504C313.739 411.366 305.9 416.17 289.59 416.17ZM289.59 384.562C273.533 384.562 266.074 388.987 266.074 398.596V401.504C266.074 411.113 273.533 415.665 289.59 415.665C305.647 415.665 313.107 411.239 313.107 401.504V398.596C313.107 388.987 305.647 384.562 289.59 384.562Z" fill="black"/>
<path d="M378.472 384.436L359.255 413.642H353.439L334.221 384.562V419.458H329.416V380.769H337.255L356.6 410.101L376.07 380.769H383.909V419.458H378.599V384.436H378.472Z" fill="black"/>
<path d="M384.036 419.71H378.22V385.321L359.381 413.894H353.186L353.059 413.768L334.347 385.573V419.837H328.911V380.39H337.129L356.347 409.469L375.565 380.39H383.909V419.71H384.036ZM378.852 419.205H383.53V381.022H376.07L356.473 410.607L356.22 410.228L337.002 381.022H329.669V419.078H333.842V383.55L353.565 413.262H359.128L378.852 383.424V419.205Z" fill="black"/>
<path d="M440.677 380.769V384.815H402.115V396.952H430.31C439.287 396.952 443.333 400.998 443.333 408.205C443.333 415.285 439.287 419.584 430.31 419.584H396.805V380.769H440.677ZM438.022 407.32C438.022 403.527 435.494 400.745 429.298 400.745H402.242V415.412H429.298C435.62 415.412 438.022 412.63 438.022 408.711V407.32Z" fill="black"/>
<path d="M430.31 419.71H396.426V380.39H440.93V384.941H402.368V396.573H430.31C439.16 396.573 443.585 400.492 443.585 408.078C443.585 415.664 439.034 419.71 430.31 419.71ZM397.058 419.205H430.31C438.655 419.205 442.953 415.538 442.953 408.205C442.953 400.998 438.655 397.332 430.31 397.332H401.736V384.435H440.298V381.022H396.932V419.205H397.058ZM429.172 415.791H401.736V400.492H429.172C437.011 400.492 438.275 404.791 438.275 407.32V408.837C438.275 411.998 436.758 415.791 429.172 415.791ZM402.368 415.159H429.172C434.735 415.159 437.643 413.009 437.643 408.837V407.32C437.643 403.274 434.735 400.998 429.172 400.998H402.368V415.159Z" fill="black"/>
<path d="M477.975 380.769L501.997 419.458H496.308L489.101 407.826H459.642L452.436 419.458H447.126L471.148 380.769H477.975ZM486.573 403.78L474.435 384.183L462.171 403.78H486.573Z" fill="black"/>
<path d="M502.63 419.71H496.308L489.101 408.078H460.022L452.815 419.71H446.873L471.274 380.39H478.355L478.481 380.516L502.63 419.71ZM496.561 419.205H501.492L477.849 381.022H471.401L447.758 419.078H452.309L459.516 407.446H489.354L496.561 419.205ZM487.205 404.033H461.665L474.435 383.55L487.205 404.033ZM462.803 403.4H486.193L474.562 384.688L462.803 403.4Z" fill="black"/>
<path d="M515.02 380.769V396.826H551.686V380.769H556.996V419.458H551.686V401.125H515.02V419.458H509.71V380.769H515.02Z" fill="black"/>
<path d="M557.249 419.71H551.433V401.378H515.273V419.71H509.331V380.39H515.273V396.447H551.433V380.39H557.249V419.71ZM552.065 419.205H556.743V381.022H552.065V397.079H514.767V381.022H510.089V419.078H514.767V400.745H552.065V419.205Z" fill="black"/>
<path d="M617.81 380.769L592.018 399.355L618.442 419.458H610.603L587.34 401.757H575.329V419.458H570.018V380.769H575.329V397.458H587.087L610.351 380.769H617.81Z" fill="black"/>
<path d="M619.327 419.71H610.477H610.351L587.087 402.01H575.581V419.71H569.639V380.39H575.581V397.079H586.96L610.224 380.39H618.569L592.397 399.228L619.327 419.71ZM610.73 419.205H617.557L591.512 399.355L616.925 381.022H610.603L587.34 397.711H575.202V381.022H570.524V419.078H575.202V401.378H587.593H587.719L610.73 419.205Z" fill="black"/>
<path d="M638.545 384.942V380.643H687.854V384.942H665.855V419.331H660.544V384.942H638.545Z" fill="black"/>
<path d="M666.108 419.711H660.165V385.321H638.166V380.516H688.107V385.321H666.108V419.711ZM660.797 419.205H665.475V384.689H687.475V381.022H638.798V384.689H660.797V419.205Z" fill="black"/>
<path d="M738.933 380.769V384.815H701.635V397.837H730.462V401.883H701.635V415.538H739.186V419.584H696.325V380.769H738.933Z" fill="black"/>
<path d="M739.439 419.71H695.946V380.39H739.186V385.068H701.888V397.458H730.715V402.01H701.888V415.159H739.439V419.71ZM696.578 419.205H738.806V415.791H701.256V401.378H730.083V397.964H701.256V384.435H738.554V381.022H696.578V419.205Z" fill="black"/>
<path d="M770.92 402.516L749.933 419.458H743.232L767.38 399.987L743.737 380.769H751.07L771.426 397.332L791.908 380.769H798.609L774.966 399.734L799.241 419.458H791.908L770.92 402.516Z" fill="black"/>
<path d="M800 419.71H791.655L791.529 419.584L770.794 402.768L749.806 419.584H742.22L766.875 399.987L742.852 380.39H751.07L771.3 396.826L791.782 380.39H799.368L775.346 399.734L800 419.71ZM791.908 419.205H798.356L774.461 399.86L797.724 381.022H792.035L771.426 397.711L750.944 381.022H744.622L767.886 399.987L767.633 400.24L744.117 419.205H749.806L770.92 402.136L771.047 402.263L791.908 419.205Z" fill="black"/>
<path d="M630.074 419.837C632.239 419.837 633.994 418.082 633.994 415.917C633.994 413.753 632.239 411.998 630.074 411.998C627.909 411.998 626.155 413.753 626.155 415.917C626.155 418.082 627.909 419.837 630.074 419.837Z" fill="black"/>
</g>
<defs>
<clipPath id="clip0_3373_61">
<rect width="800" height="800" fill="white"/>
</clipPath>
</defs>
</svg>
