<?xml version="1.0" encoding="utf-8"?><svg width="626" height="231" viewBox="0 0 626 231" fill="none" xmlns="http://www.w3.org/2000/svg">
<path d="M412.703 95.9907H410.92V78.1601H412.703V95.9907Z" fill="#231F20"/>
<path d="M434.377 78.1601V95.9907H432.344L426.717 87.4774L426.416 87.0001C424.407 83.9867 422.976 81.7761 422.096 80.3441C422.172 82.3041 422.197 84.5641 422.197 87.1254V95.9907H420.464V78.1601H422.499L428.099 86.6494L429.052 88.1307C430.736 90.6921 431.965 92.6014 432.744 93.8574C432.669 91.8734 432.644 89.5867 432.644 87.0507V78.1601H434.377Z" fill="#231F20"/>
<path d="M455.875 78.1601V95.9907H453.841L448.215 87.4774L447.913 87.0001C445.904 83.9867 444.473 81.7761 443.595 80.3441C443.669 82.3041 443.695 84.5641 443.695 87.1254V95.9907H441.961V78.1601H443.996L449.596 86.6494L450.551 88.1307C452.235 90.6921 453.464 92.6014 454.243 93.8574C454.168 91.8734 454.143 89.5867 454.143 87.0507V78.1601H455.875Z" fill="#231F20"/>
<path d="M470.24 94.836C474.133 94.836 476.771 91.5707 476.771 87.0747C476.771 82.58 474.133 79.3147 470.24 79.3147C466.347 79.3147 463.711 82.58 463.711 87.0747C463.711 91.5707 466.347 94.836 470.24 94.836ZM470.24 96.368C465.116 96.368 461.927 92.4747 461.927 87.0747C461.927 81.6747 465.116 77.7827 470.24 77.7827C475.364 77.7827 478.553 81.6747 478.553 87.0747C478.553 92.4747 475.364 96.368 470.24 96.368Z" fill="#231F20"/>
<path d="M496.963 78.1601L490.835 95.9907H488.575L482.447 78.1601H484.256L487.319 87.1254C488.449 90.3667 489.253 92.8521 489.731 94.5854C490.208 92.9028 490.985 90.4161 492.116 87.1507L495.155 78.1601H496.963Z" fill="#231F20"/>
<path d="M510.7 89.4868L509.821 87.0254L509.62 86.4974L508.464 83.3081C507.937 81.8267 507.509 80.5454 507.184 79.5161C506.732 80.9467 506.028 83.0068 505.049 85.7201L504.572 87.0254L503.693 89.4868H510.7ZM511.253 90.9934H503.141L501.357 95.9907H499.549L506.053 78.1601H508.364L514.869 95.9907H513.061L511.253 90.9934Z" fill="#231F20"/>
<path d="M529.7 79.6414H523.949V95.9907H522.165V79.6414H516.413V78.1601H529.7V79.6414Z" fill="#231F20"/>
<path d="M536.392 95.9907H534.609V78.1601H536.392V95.9907Z" fill="#231F20"/>
<path d="M550.933 94.836C554.827 94.836 557.464 91.5707 557.464 87.0747C557.464 82.58 554.827 79.3147 550.933 79.3147C547.04 79.3147 544.403 82.58 544.403 87.0747C544.403 91.5707 547.04 94.836 550.933 94.836ZM550.933 96.368C545.809 96.368 542.62 92.4747 542.62 87.0747C542.62 81.6747 545.809 77.7827 550.933 77.7827C556.057 77.7827 559.247 81.6747 559.247 87.0747C559.247 92.4747 556.057 96.368 550.933 96.368Z" fill="#231F20"/>
<path d="M579.213 78.1601V95.9907H577.18L571.553 87.4774L571.252 87.0001C569.241 83.9867 567.811 81.7761 566.932 80.3441C567.007 82.3041 567.032 84.5641 567.032 87.1254V95.9907H565.299V78.1601H567.335L572.933 86.6494L573.888 88.1307C575.572 90.6921 576.801 92.6014 577.58 93.8574C577.505 91.8734 577.48 89.5867 577.48 87.0507V78.1601H579.213Z" fill="#231F20"/>
<path d="M599.228 84.9668C600.409 84.2881 601.187 83.6854 601.615 83.1828C602.041 82.6548 602.268 82.0774 602.268 81.3988C602.268 80.0934 601.187 79.2134 599.781 79.2134C598.4 79.2134 597.295 80.1441 597.295 81.5508C597.295 82.6294 597.848 83.3588 599.228 84.9668ZM598.725 86.7494C595.587 88.5574 594.633 89.6375 594.633 91.5201C594.633 93.5295 596.189 94.9614 598.4 94.9614C600.384 94.9614 601.615 94.0068 603.248 92.0228L598.725 86.7494ZM606.637 95.9908L604.252 93.2028C602.519 95.2881 600.887 96.3428 598.349 96.3428C595.185 96.3428 592.925 94.3348 592.925 91.6215C593.025 88.9841 594.256 87.7788 597.771 85.6441C596.441 84.0614 595.688 82.9308 595.688 81.5508C595.688 79.4401 597.52 77.9334 599.832 77.9334C602.167 77.9334 603.849 79.4654 603.849 81.4241C603.849 82.3281 603.599 83.1068 603.071 83.7854C602.544 84.4641 601.589 85.2174 600.183 86.0454L604.252 90.7668L606.863 87.4521L608.093 88.3308L605.256 91.9481L608.723 95.9908H606.637Z" fill="#231F20"/>
<path d="M422.324 115.76H416.572V132.111H414.788V115.76H409.037V114.279H422.324V115.76Z" fill="#231F20"/>
<path d="M439.601 115.76H429.832V122.215H438.897V123.671H429.832V130.629H439.803V132.111H428.048V114.279H439.601V115.76Z" fill="#231F20"/>
<path d="M458.237 117.595C456.253 115.961 454.772 115.433 453.089 115.433C448.996 115.433 446.433 118.673 446.433 123.195C446.433 127.691 449.047 130.955 452.888 130.955C455.023 130.955 456.505 130.101 458.489 128.168L459.595 129.348C458.439 130.477 457.36 131.305 456.355 131.783C455.349 132.26 454.195 132.487 452.913 132.487C447.865 132.487 444.651 128.593 444.651 123.195C444.651 117.769 447.816 113.903 453.089 113.903C455.299 113.903 457.133 114.555 459.267 116.364L458.237 117.595Z" fill="#231F20"/>
<path d="M478.957 132.111H477.148V123.647H466.901V132.111H465.117V114.279H466.901V122.164H477.148V114.279H478.957V132.111Z" fill="#231F20"/>
<path d="M500.429 114.279V132.111H498.396L492.769 123.596L492.468 123.119C490.457 120.105 489.028 117.895 488.148 116.463C488.223 118.423 488.248 120.683 488.248 123.245V132.111H486.515V114.279H488.551L494.149 122.768L495.104 124.249C496.788 126.811 498.019 128.72 498.796 129.976C498.721 127.992 498.696 125.707 498.696 123.169V114.279H500.429Z" fill="#231F20"/>
<path d="M514.793 130.955C518.687 130.955 521.324 127.691 521.324 123.195C521.324 118.699 518.687 115.433 514.793 115.433C510.901 115.433 508.264 118.699 508.264 123.195C508.264 127.691 510.901 130.955 514.793 130.955ZM514.793 132.487C509.671 132.487 506.481 128.593 506.481 123.195C506.481 117.795 509.671 113.903 514.793 113.903C519.917 113.903 523.107 117.795 523.107 123.195C523.107 128.593 519.917 132.487 514.793 132.487Z" fill="#231F20"/>
<path d="M530.941 130.629H539.732V132.111H529.159V114.279H530.941V130.629Z" fill="#231F20"/>
<path d="M550.68 130.955C554.573 130.955 557.211 127.691 557.211 123.195C557.211 118.699 554.573 115.433 550.68 115.433C546.787 115.433 544.151 118.699 544.151 123.195C544.151 127.691 546.787 130.955 550.68 130.955ZM550.68 132.487C545.556 132.487 542.367 128.593 542.367 123.195C542.367 117.795 545.556 113.903 550.68 113.903C555.804 113.903 558.993 117.795 558.993 123.195C558.993 128.593 555.804 132.487 550.68 132.487Z" fill="#231F20"/>
<path d="M571.45 123.019H579.111V132.111H577.704L577.528 129.499C576.424 131.507 574.288 132.461 571.752 132.461C566.553 132.461 563.513 128.695 563.513 123.195C563.513 117.845 566.728 113.927 571.978 113.927C574.816 113.927 576.951 115.007 579.136 117.317L578.005 118.472C576.976 117.393 575.996 116.64 575.092 116.163C574.188 115.685 573.132 115.459 571.927 115.459C567.984 115.459 565.297 118.648 565.297 123.22C565.297 127.815 567.809 130.929 571.801 130.929C575.066 130.929 577.453 128.845 577.453 125.429V124.5H571.45V123.019Z" fill="#231F20"/>
<path d="M588.225 132.111H586.443V114.279H588.225V132.111Z" fill="#231F20"/>
<path d="M607.539 115.76H597.769V122.215H606.836V123.671H597.769V130.629H607.74V132.111H595.985V114.279H607.539V115.76Z" fill="#231F20"/>
<path d="M624.339 117.669C622.456 116.036 620.848 115.433 618.839 115.433C616.227 115.433 614.393 116.789 614.393 118.648C614.393 119.327 614.569 119.855 614.945 120.256C615.724 121.06 616.905 121.411 619.517 122.015C623.988 123.069 625.62 124.349 625.62 127.112C625.62 130.352 622.933 132.487 619.267 132.487C616.477 132.487 614.444 131.633 611.932 129.523L612.961 128.268C614.243 129.321 615.373 130.025 616.303 130.403C617.257 130.779 618.236 130.955 619.267 130.955C621.979 130.955 623.861 129.499 623.861 127.163C623.861 126.409 623.661 125.807 623.26 125.353C622.456 124.451 621.2 124.073 618.663 123.496C614.117 122.465 612.785 121.512 612.685 118.699C612.685 115.76 615.524 113.903 618.815 113.903C621.351 113.903 623.284 114.656 625.369 116.439L624.339 117.669Z" fill="#231F20"/>
<path d="M207.668 79.7373L286.664 0.290646V144.187L207.668 223.535V79.7373Z" fill="#9CD41F"/>
<path d="M295.375 188.823L317.409 166.753V208.303L295.375 230.372V188.823Z" fill="#9CD41F"/>
<path d="M150.795 18.6508L167.9 1.80275V33.7134L150.795 50.5627V18.6508Z" fill="#9CD41F"/>
<path d="M185.58 90.0547C172.087 90.0547 163.704 99.9414 163.704 115.856C163.704 131.772 172.087 141.659 185.58 141.659C199.073 141.659 207.456 131.772 207.456 115.856C207.456 99.9414 199.073 90.0547 185.58 90.0547ZM185.58 154.691C164.167 154.691 149.212 138.723 149.212 115.856C149.212 103.921 153.027 93.9014 160.245 86.8814C166.784 80.5227 175.781 77.02 185.58 77.02C206.992 77.02 221.947 92.9907 221.947 115.856C221.947 138.359 206.653 154.691 185.58 154.691Z" fill="#231F20"/>
<path d="M111.029 153.257V141.956H142.216V153.257H111.029Z" fill="#231F20"/>
<path d="M0.898682 153.223V141.143H14.4267V90.2054H0.898682V78.1241H41.4507V90.2054H27.9227V141.143H41.4507V153.223H0.898682Z" fill="#231F20"/>
<path d="M277.208 153.257L250.201 89.812V153.257H236.708V78.16H259.569L286.344 141.788H286.511V78.16H300.004V153.257H277.208Z" fill="#231F20"/>
<path d="M75.0267 153.257V101.489L86.2947 90.24H52.8867V78.16H111.599V90.24H88.5227V153.257H75.0267Z" fill="#231F20"/>
<path d="M318.431 153.257V78.16H372.321V90.24H331.924V108.871H367.637V120.657H331.924V141.143H372.321V153.257H318.431Z" fill="#231F20"/>
</svg>
